<svg xmlns="http://www.w3.org/2000/svg" width="2216" height="1468"><path d="M334.142 31.874c8.523.038 17.046.022 25.569.005 15.917-.03 31.835-.018 47.752.018a17821 17821 0 0 0 51.383.044l12.497-.006c38.658-.021 77.316.002 115.974.054a112978 112978 0 0 0 118.742.1l28.268.01q39.501.014 79.002.036l3.633.002q57.247.033 114.494.1l3.748.005 60.239.071q119.468.143 238.934.162l63.986.011q57.2.011 114.403.054l3.63.002a418705 418705 0 0 1 114.157.1q52.38.047 104.758.052a73032 73032 0 0 1 134.992.13l3.085.005c16.047.027 32.094.028 48.142.017q23.73-.015 47.459.057c8.445.025 16.889.039 25.334.015 65.827-.172 125.243 9.057 181.314 45.91 3.223 2.109 6.539 4.039 9.863 5.984 12.715 7.842 22.763 18.298 32.816 29.227 2.858 3.102 5.812 6.056 8.871 8.961 17.668 17.489 29.322 38.494 36.137 62.181 1.705 5.83 3.593 11.58 5.582 17.319l.795 2.293q1.975 5.691 3.985 11.37c4.807 13.7 9.478 27.775 9.45 42.42l.007 2.268q.01 3.773.008 7.544l.013 5.477q.015 7.563.02 15.126.01 8.215.028 16.43.029 16.31.046 32.62a64710 64710 0 0 0 .054 37.055c.115 72.837.177 145.675.285 289.225l.03 48.168c.034 50.927.1 101.853.186 152.78a102681 102681 0 0 1 .175 184.499v2.241c.01 23.797.049 47.593.105 71.39.057 23.985.081 47.97.063 71.956-.011 14.872.004 29.743.065 44.615.036 9.499.035 18.998.006 28.497-.016 5.405-.017 10.81.028 16.214.216 28.123-1.728 50.696-18.95 74.16-2.13 2.913-4.008 5.875-5.868 8.964-5.738 9.008-12.645 15.717-21.3 21.918-3.121 2.259-6.083 4.656-9.075 7.082-28.142 21.992-62.982 33.103-97.25 41.063l-2.517.586q-3.636.839-7.275 1.656l-2.126.488a153.7 153.7 0 0 1-34.02 3.654l-3.79.01c-3.45.01-6.9.008-10.349.004-3.776-.003-7.551.006-11.327.013q-9.952.017-19.905.015a21762 21762 0 0 0-29.8.021q-25.396.03-50.794.038-25.737.008-51.475.03l-3.284.004-13.244.012c-53.503.048-107.005.074-160.508.096l-59.484.027-3.715.002-3.717.002-3.72.002a969513 969513 0 0 1-274.243.1h-2l-50.182.011c-63.291.015-126.583.037-189.875.089l-2.018.001-66.433.056c-61.876.054-123.752.103-185.629.12h-3.859a477152 477152 0 0 1-117.633.02h-3.73c-39.612.005-79.223.038-118.834.085a70569 70569 0 0 1-136.344.038l-3.283-.002c-17.095-.006-34.19.017-51.284.053q-25.267.054-50.536.007c-8.996-.016-17.992-.018-26.988.022-69.678.294-69.678.294-101.891-10.135l-2.068-.665c-7.51-2.423-14.897-4.938-22.057-8.273l-2.441-1.12A1399 1399 0 0 1 141 1421l-3.534-1.65a1570 1570 0 0 1-9.559-4.508 897 897 0 0 0-3.75-1.769C98.136 1400.847 81.307 1383.053 65 1360l-1.467-2.062c-5.513-7.798-10.51-15.77-14.46-24.48a126 126 0 0 0-4.165-8.292c-9.077-18.11-7.043-39.02-6.948-58.714.018-5.732-.01-11.463-.031-17.195a6126 6126 0 0 1-.017-30.094q.029-16.133 0-32.265l-.004-2.065-.015-8.326a33250 33250 0 0 1-.04-84.367l.008-13.98a44974 44974 0 0 0-.012-58.372l-.011-18.856c-.026-43.861-.037-87.722-.013-131.583l.001-2.504.015-27.637.002-2.52.006-10.09q.044-79.773-.043-159.546l-.042-40.195-.002-2.5q-.039-38.175-.039-76.349v-2.423a155685 155685 0 0 1 .017-76.203c.008-24.852-.011-49.703-.045-74.554a25003 25003 0 0 1 .028-85.543l.003-2.06c.017-11.367-.004-22.733-.037-34.099q-.036-14.878.026-29.757c.022-5.64.029-11.28-.01-16.92-.235-37.617 4.912-72.678 32.47-100.762 2.898-2.91 5.83-5.781 8.774-8.644 3.353-3.283 6.447-6.722 9.507-10.277 9.537-10.91 22.3-18.69 35.02-25.348 2.561-1.439 4.85-3.048 7.211-4.793C137.337 71.86 144.623 68.475 152 65l2.03-.972c9.656-4.602 19.561-8.515 29.595-12.216l3.224-1.224c7.33-2.639 14.63-4.406 22.256-5.941q3.233-.66 6.464-1.32l3.275-.669a552 552 0 0 0 8.673-1.887c35.566-8.001 70.384-9.068 106.625-8.897m1536.483 115.001c-2.868 4.092-4.376 8.317-5.625 13.125l-.688 2.437c-1.026 8.415-.072 17.002.606 25.41l.449 5.772q.24 3.085.484 6.171a9014 9014 0 0 1 1.89 24.498c1.4 18.335 2.69 36.678 3.946 55.024l.162 2.36c1.324 19.331 2.574 38.663 3.554 58.015.435 8.55.954 17.088 1.597 25.625l.216 2.93c.411 5.208 1.01 10.344 1.749 15.516 1.718 12.8 1.95 25.776 2.505 38.668.153 3.528.314 7.056.473 10.584.94 20.867.94 20.867 1.325 30.898l.126 3.191q.114 2.882.214 5.765c.432 10.892 2.303 20.741 10.025 28.85 6.448 5.914 13.652 8.472 22.367 8.286 12.242-1.666 20.666-7.482 29.527-15.727 3.978-3.657 8.206-6.961 12.473-10.273l1.873-1.454c7.857-6.089 15.772-12.07 23.888-17.81 6.518-4.618 12.907-9.403 19.266-14.238a976 976 0 0 1 3.914-2.957c11.189-8.42 22.323-16.867 24.934-31.479.665-8.362-1.804-15.492-6.875-22.062-5.014-5.806-10.909-9.539-18.629-10.238-13.875-.351-22.1 5.085-32.413 13.638-8.032 6.564-16.39 12.803-24.77 18.912l-2.208 1.614C1945 419 1945 419 1941 419l-.152-2.497q-.358-5.814-.723-11.628l-.133-2.119c-.639-10.13-1.407-20.233-2.47-30.329-.626-6.22-.626-6.22.478-8.427 8.487-1.945 17.826-1.014 26.455-.785 11.227.145 18.225-1.865 26.37-9.781 6.249-6.99 7.046-14.415 6.62-23.547-.816-7.13-3.483-12.353-8.695-17.262-11.702-8.909-25.747-8.923-39.875-8.688q-3.879.053-7.758.09l-3.418.055C1935 304 1935 304 1933 303c-.905-2.716-1.231-4.754-1.449-7.578l-.223-2.822-.23-3.065-.25-3.192q-.396-5.14-.786-10.28l-.54-7c-1.233-16.017-2.429-32.036-3.522-48.063 4.146.516 6.11 1.608 9.066 4.527l2.221 2.15c1.126 1.12 1.126 1.12 2.275 2.26q2.247 2.208 4.504 4.403l1.999 1.98c1.897 1.647 3.644 2.673 5.935 3.68v2c1.93 1.83 1.93 1.83 4.5 3.812l3.04 2.422 1.68 1.334a354 354 0 0 1 5.616 4.635c18.529 15.867 18.529 15.867 41.613 21.149 8.736-1.204 15.49-5.355 20.801-12.29 4.326-7.57 5.264-16.036 3.133-24.519-5.827-14.31-17.991-24.591-29.985-33.684-7.42-5.752-14.477-11.952-21.336-18.359-5.867-5.468-12.114-10.377-18.465-15.267a387 387 0 0 1-16.157-13.148c-21.366-19.003-21.366-19.003-48.006-26.358-11.563 1.299-20.514 6.194-27.809 15.148m-258.355 15.223c-10.019 13.873-7.637 32.582-6.098 48.683l.37 3.984q.494 5.28 1 10.559.313 3.28.623 6.561c1.878 19.852 3.912 39.67 6.38 59.46 5.56 44.703 9.697 89.598 13.893 134.446q1.274 13.605 2.562 27.209l.232 2.458q.673 7.117 1.393 14.23l.3 3.182c1.238 11.868 4.49 22.742 13.286 31.275 8.428 6.831 16.84 9.304 27.63 8.238 15.228-2.704 28.528-15.84 39.362-25.89 3.94-3.511 8.12-6.667 12.324-9.848 9.084-6.88 18.014-14.008 26.473-21.645l2.453-2.176c4.379-3.9 8.635-7.86 12.738-12.048 1.763-1.73 3.583-3.337 5.461-4.94 11.408-9.928 22.133-20.841 31.348-32.836q1.29-1.593 2.59-3.18c10.15-12.489 19.504-25.762 25.41-40.82l1.246-3.129c4.723-13.32 4.03-26.791-1.246-39.871-6.878-14.16-16.668-25.972-27.434-37.333a386 386 0 0 1-4.718-5.132c-5.339-5.888-10.74-11.437-16.848-16.535q-1.74-1.51-3.473-3.027c-6.237-5.455-12.501-10.832-19.015-15.957-2.994-2.403-5.908-4.895-8.825-7.391a281 281 0 0 0-13.125-10.563c-4.864-3.681-9.558-7.525-14.187-11.5l-1.795-1.54c-2.19-1.896-4.346-3.779-6.353-5.87-1.19-1.38-1.19-1.38-3.227-1.152v-2c-1.45-1.466-1.45-1.466-3.375-3-3.373-2.86-6.522-5.849-9.625-9-3.526-3.564-7.122-6.951-10.926-10.215-5.887-5.067-11.582-10.293-17.074-15.785-8.78-8.397-16.579-12.5-28.89-12.41-11.19.757-23.66 5.803-30.84 14.508M760 168c-10.966 13.786-9.643 34.56-8.3 51.164l.227 2.926q.375 4.768.76 9.535l.267 3.34c.667 8.346 1.352 16.691 2.046 25.035l.307 3.691c2.204 26.379 4.413 52.703 8.21 78.906.894 6.293 1.703 12.595 2.483 18.903l.253 2.045c1.625 13.265 2.708 26.563 3.793 39.88 1.889 22.902 4.811 45.665 7.795 68.446.63 4.838 1.232 9.673 1.73 14.526l.258 2.492q.224 2.227.423 4.455c.995 10.002 5.354 19.453 12.623 26.406 6.34 4.564 12.506 5.038 20.125 4.25 5.794-1.214 10.615-2.885 14.437-7.563 13.612-21.086 7.324-50.872 4.625-74.187q-.836-7.366-1.652-14.734l-.393-3.535c-1.044-9.65-1.676-19.283-2.017-28.981l1.887-.447c7.35-1.816 13.434-5.399 19.872-9.236 4.543-2.67 9.149-5.232 13.741-7.817l6-3.395c3.182-1.799 6.367-3.591 9.562-5.367 7.85-4.397 15.307-9.205 22.74-14.258a774 774 0 0 1 7.464-4.949c13.29-8.691 13.29-8.691 25.734-18.531l2.492-2.094C951.042 317.21 961.297 303.282 963 285c-.544-16.186-5.88-28.486-17-40-3.837-3.562-7.988-6.683-12.237-9.734a313 313 0 0 1-4.993-3.676c-15.543-11.502-32.295-21.382-48.812-31.401a1883 1883 0 0 1-8.583-5.252l-3.113-1.91a537 537 0 0 1-7.055-4.46c-8.386-5.373-16.863-10.15-25.85-14.44-2.714-1.298-5.42-2.613-8.127-3.928q-3.052-1.476-6.105-2.949l-2.881-1.394C798.706 156.5 777.404 151.386 760 168m265 30-1.8 1.602c-4 4.025-6.36 8.522-8.575 13.695l-.921 2.134c-3.12 7.352-5.676 14.853-8.142 22.444q-.75 2.286-1.504 4.572A3379 3379 0 0 0 999 258l-.972 3.006a8403 8403 0 0 0-15.73 49.21c-4.334 13.696-8.371 27.466-12.298 41.284-3.068 10.788-6.144 21.572-9.375 32.312l-.938 3.196c-1.947 6.393-3.673 11.885-9.375 15.87L947 404.563l-1.892.969c-12.724 6.405-25.736 12.605-38.898 18.05l-1.892.788a815 815 0 0 1-5.196 2.121c-7.29 3.526-13.727 9.268-16.567 16.99-1.632 7.412-1.811 15.103 2.183 21.747 4.802 6.75 9.207 11.088 17.262 13.773 9.713.951 17.434-.624 26.504-3.809 2.854-.972 5.53-1.696 8.496-2.191a225 225 0 0 1-2.594 16.7l-.46 2.418q-.72 3.784-1.446 7.57l-.973 5.11c-2.366 12.43-2.366 12.43-3.114 16.02-1.838 9.705-1.035 20.117 4.064 28.655 4.4 6.179 8.732 9.512 16.16 11.086 7.75 1.048 13.624.204 19.968-4.485 14.952-12.787 18.234-30.408 22.001-48.947 2.515-12.356 5.36-24.61 8.406-36.847q.734-2.952 1.46-5.906 1.028-4.164 2.075-8.323l.615-2.506c2.825-11.08 2.825-11.08 6.903-14.049l2.384-1.059 2.7-1.226L1018 436c.919-.4 1.837-.8 2.784-1.21 3-1.287 6.012-2.541 9.028-3.79 7.444-3.098 14.836-6.264 22.157-9.64l1.991-.915c3.883-1.782 3.883-1.782 7.753-3.592a595 595 0 0 1 5.369-2.494l3.1-1.454c3.103-.997 4.737-.841 7.818.095 4.567 13.289 8.667 26.724 12.81 40.15q1.724 5.578 3.456 11.155l1.119 3.606q1.113 3.584 2.23 7.167a1651 1651 0 0 1 5.175 16.872q1.187 3.951 2.387 7.9a940 940 0 0 1 1.641 5.523c3.17 10.422 6.778 19.485 16.182 25.627 8.377 4.074 14.95 5.033 23.937 2.437 7.93-2.844 12.95-6.902 17-14.312 6.967-15.628-.639-32.313-5.5-47.563l-1.91-6.062q-1.89-6.002-3.79-12a3163 3163 0 0 1-6.675-21.438c-2.895-9.357-5.834-18.7-8.857-28.017-5.155-16.02-5.155-16.02-3.205-20.045 2.544-1.727 4.879-3.043 7.625-4.375l2.466-1.253c4.875-2.454 9.8-4.801 14.732-7.136q3.106-1.473 6.208-2.951a771 771 0 0 1 8.204-3.843c8.772-4.108 17.55-8.333 21.702-17.63l1.153-2.48c2.664-6.826 2.865-13.39.41-20.332-3.073-6.923-7.815-12.934-14.563-16.563-11.503-4.208-21.856-1.453-32.449 3.422q-2.245 1.068-4.488 2.141-2.51 1.166-5.02 2.328c-8.153 3.782-8.153 3.782-16.175 7.83l-2.114 1.112-1.865 1.007C1118 326 1118 326 1114 326l-.55-1.86a670 670 0 0 0-5.454-17.433l-2.633-8.064q-2.37-7.252-4.734-14.506l-.951-2.917a6048 6048 0 0 1-6.624-20.436q-1.175-3.646-2.356-7.29a1702 1702 0 0 1-5.973-18.79 2607 2607 0 0 0-3.194-10.155 721 721 0 0 1-1.523-4.91C1076.532 208.298 1072.94 199.1 1063 192c-13.71-6.735-26.78-4.191-38 6m357 4c-7.666 11.294-5.549 23.693-3.219 36.328 2.155 12.04 3.998 24.115 5.774 36.215q.762 5.183 1.533 10.363a1982 1982 0 0 1 5.607 40.716c.263 2.054.54 4.106.818 6.158 2.533 18.845 2.782 37.602 2.8 56.595l.01 3.751c.074 47.519.074 47.519-13.167 61.007-8.112 7.025-18.441 10.414-29.156 9.742-16.405-2.008-32.378-8.011-45-18.875-5.204-6.726-8.687-14.148-11.5-22.125l-1.14-3.218c-8.155-24.085-11.61-49.478-14.36-74.657l-.329-3.007q-1.54-14.137-3.066-28.275c-2.4-22.209-4.841-44.336-9.105-66.28-.19-.983-.38-1.965-.574-2.977-2.393-11.68-5.466-24.843-14.801-32.961-8.008-3.844-15.302-4.52-23.738-1.594-6.114 2.746-10.713 6.443-14.387 12.094-3.728 11.612-.177 26.137 1.393 37.908.716 5.382 1.4 10.768 2.087 16.154l.41 3.195c2.073 16.18 3.688 32.387 5 48.645 4.771 88.929 4.771 88.929 47.61 163.383 25.644 21.73 61.17 34.007 94.812 32.59 21.02-2.084 41.097-11.896 56.688-25.875l2.766-2.43c23.41-21.902 28.86-54.17 29.976-84.713.239-7.64.359-15.277.383-22.92l.014-2.853c-.044-20.365-1.545-40.54-3.764-60.772l-.393-3.643c-2.303-21.256-5.317-42.347-8.81-63.437a601 601 0 0 1-2.363-15.591c-.26-1.858-.26-1.858-.523-3.753q-.449-3.262-.869-6.528c-1.914-13.778-6.329-25.96-17.366-34.919-13.066-9.183-30.053-5.07-40.051 6.559M488.773 302.54c-2.959 2.625-6.048 5.026-9.21 7.397-5.596 4.203-10.745 8.75-15.848 13.532a225 225 0 0 1-6.965 6.218c-6.143 5.342-11.677 11.148-16.973 17.32-1.828 2.05-3.745 3.956-5.715 5.868-4.444 4.411-8.274 9.143-12.062 14.125l-1.557 2.045c-7.645 10.09-14.773 20.33-21.331 31.155-1.674 2.71-3.466 5.34-5.237 7.987-27.5 42.21-49.184 91.156-61.875 139.813l-.585 2.239C320.683 591.437 313.481 632.66 309 675h-2c-5.807-10.945-10.384-22.192-14.813-33.75q-1.063-2.751-2.13-5.503a3756 3756 0 0 1-8.897-23.22c-4.037-10.633-8.189-21.207-12.627-31.68-.754-1.777-1.501-3.558-2.249-5.338-5.703-13.294-12.807-27.589-26.745-33.673-8.04-2.647-15.924-2.434-23.633 1.133-14.808 8.43-19.048 25.298-23.356 40.667a640 640 0 0 1-1.849 6.409c-3.07 10.687-5.281 21.483-7.404 32.393-2.146 10.98-4.612 21.893-7.047 32.812l-.784 3.535c-3.115 14.03-6.346 28.019-9.84 41.96C156.903 735.63 151.682 771.99 151 808l-.086 3.805c-.044 4.401.012 8.794.086 13.195l.038 3.247c.422 31.803 1.782 64.69 8.962 95.753l.91 4.077c4.442 19.841 9.646 38.968 17.09 57.923q1.257 3.282 2.508 6.566a2186 2186 0 0 0 5.082 13.192 751 751 0 0 1 4.539 11.984c3.993 10.803 8.399 21.121 13.871 31.258l1.066 1.994c9.56 17.789 20.773 33.38 34.465 48.256 2.413 2.687 4.702 5.44 6.969 8.25 3.883 4.81 7.967 9.386 12.152 13.934a304 304 0 0 1 6.035 6.816c4.89 5.64 4.89 5.64 10.313 10.75h2v2a137 137 0 0 0 6.375 5.125q1.952 1.5 3.902 3.004l1.941 1.489c2.28 1.768 4.497 3.606 6.72 5.444 11.511 9.206 24.294 16.637 37.062 23.938l2.248 1.298c56.624 32.641 137.214 43.377 200.413 26.635 26.325-7.353 50.942-15.608 74.339-29.933l1.91-1.148c7.511-4.527 14.523-9.568 21.465-14.915l2.235-1.714c4.512-3.536 8.611-7.301 12.595-11.424 1.712-1.716 3.482-3.266 5.357-4.799 3.927-3.293 7.141-7.091 10.438-11l1.527-1.715c7.13-8.036 12.407-16.858 17.473-26.285l1.633-2.983c23.93-43.832 33.76-90.679 38.837-140.034q.332-3.216.672-6.431c2.155-20.481 4.272-40.954 4.858-61.552l.096-3.248c.966-38.868-4.171-77.681-11.698-115.735q-.583-2.957-1.158-5.916c-4.847-24.628-11.103-48.892-17.47-73.164q-1.132-4.32-2.258-8.64-1.78-6.81-3.585-13.616-.657-2.48-1.308-4.96a508 508 0 0 0-8.377-28.377c-3.155-9.69-6.028-19.44-8.75-29.258l-.573-2.065a6183 6183 0 0 1-5.215-18.919 2863 2863 0 0 0-2.907-10.513c-.532-1.922-1.055-3.848-1.578-5.773-6.575-23.715-6.575-23.715-23.219-40.816-7.328-4.01-15.252-5.034-23.313-2.813-8.348 2.95-14.724 8.264-18.914 16.11-2.602 6.396-3.57 12.985-4.57 19.77-3.106 21.079-8.238 41.5-14.203 61.933l-.687 2.362c-10.328 35.519-10.328 35.519-15.876 50.95l-.939 2.637c-1.405 3.77-2.473 6.307-5.498 9.051-1.13-19.54-1.583-39.077-1.953-58.644-.041-2.057-.09-4.115-.138-6.172-.439-18.904.782-37.68 1.96-56.54.73-11.817 1.285-23.588 1.418-35.426.338-27.822 3.77-55.576 6.713-83.218l.393-3.705c1.37-12.874 2.767-25.712 4.92-38.483l.634-3.854c2.01-12.097 4.289-24.143 6.584-36.188 1.596-8.375 3.093-16.767 4.563-25.164a877 877 0 0 1 3.55-18.938q.63-3.2 1.256-6.403c.397-2 .809-3.997 1.221-5.994 2.246-11.472 4.712-24.95-2.121-35.271-4.867-7.087-11.058-11.517-19.457-13.613-30.025-4.566-57.227 18.056-77.77 37.152m1405.095 291.979c-5.484 7.284-7.945 17.18-10.68 25.793l-1.03 3.232c-3.006 9.624-5.54 19.35-8.006 29.124-2.673 10.59-5.531 21.123-8.465 31.644l-.645 2.32A2862 2862 0 0 1 1861 701l-.888 3.189-.78 2.729-.645 2.286C1858 711 1858 711 1856 713c-6.13-.439-12.113-1.756-18.125-3q-4.935-1.013-9.875-2l-3-.605c-4.294-.565-8.548-.66-12.875-.708l-2.605-.087c-7.168-.071-12.192 1.65-17.727 6.224-6.274 7.282-8.395 14.06-8.074 23.672.8 7.128 5.919 12.658 11.215 17.14 9.829 7.16 22.351 9.018 33.995 11.614l2.641.602 2.368.525C1836 767 1836 767 1839 769c-.147 5.669-1.107 10.65-3.04 15.98-4.225 12.173-7.28 24.722-10.588 37.168q-2.54 9.543-5.099 19.082l-.561 2.097c-2.252 8.396-4.567 16.767-7.048 25.099l-.73 2.463a688 688 0 0 1-3.241 10.633c-2.981 9.918-4.924 20.26-.568 30.04 3.305 5.664 7.53 9.534 13.77 11.93 8.37 2.02 16.74.918 24.105-3.492 9.204-6.48 12.495-15.792 16-26l1.145-3.309c5.362-15.677 9.988-31.46 14.022-47.526a692 692 0 0 1 13.02-45.228l.685-2.145c1.545-4.637 3.59-8.613 6.128-12.792 8.038-.448 14.996 1.237 22.75 3.25 11.387 2.861 22.763 5.36 34.328 7.38l1.922.37 2.156.29c1.844.71 1.844.71 2.73 2.441l.579 2.347.726 2.756L1963 805a1324 1324 0 0 0 2.129 7.36l1.182 4.084c7.274 25.062 15.31 49.81 24.756 74.15.81 2.088 1.604 4.18 2.394 6.273 3.61 9.221 7.43 15.585 16.39 20.223 8.094 3.429 15.643 2.309 23.637-.903 6.9-3.262 10.428-8.32 13.512-15.187 4.394-14.071-2.523-29.113-7.57-42.093a942 942 0 0 1-8.566-22.979q-.73-2.025-1.469-4.049c-2.872-7.867-5.257-15.553-6.395-23.879 9.102 2.676 9.102 2.676 13.02 4.09 8.705 3.14 15.865 4.39 24.71 1.074 6.565-3.367 12.06-8.574 14.68-15.543 1.738-7.722 1.914-15.901-2.144-22.875-13.025-17.97-40.703-25.421-61.38-30.239-4.096-.985-5.672-1.957-7.886-5.507-.9-2.5-.9-2.5-1.656-5.355l-.893-3.277-.951-3.556c-4.224-15.29-9.173-30.3-14.305-45.307a1105 1105 0 0 1-2.914-8.67c-7.773-23.136-19.418-43.753-32.603-64.174-1.674-2.654-3.26-5.348-4.838-8.06-3.97-6.657-9.721-12.86-17.352-15.199-12.922-2.09-25.43-1.079-34.62 9.117m-578.743 26.168c-7.333 13.22-5.557 28.646-3.813 43.063 1.228 10.74 2.271 21.48 3.188 32.25.99 11.573 2.09 23.123 3.41 34.664 2.278 20.293 3.473 40.58 4.125 60.984l.253 7.436q.33 9.68.645 19.36c.34 10.345.69 20.69 1.041 31.034q.18 5.358.354 10.717c.321 9.707.659 19.41 1.185 29.108l.117 2.175c.592 10.248 2.722 18.862 10.225 26.381 6.314 5.092 13.606 7.816 21.754 7.489 7.896-1.149 15.161-4.217 20.391-10.348 7.539-10.474 7.243-21.615 6.687-34.063q-.083-2.151-.161-4.302-.168-4.497-.348-8.994c-.275-6.994-.472-13.99-.676-20.987q-.155-5.298-.318-10.595L1383 830c4.777 1.494 8.45 3.488 12.5 6.375 7.913 5.452 16.241 9.96 24.703 14.492 4.788 2.568 9.508 5.237 14.217 7.945 10.165 5.84 20.486 11.21 31.01 16.372 7.016 3.466 13.823 7.17 20.57 11.128 25.691 15.057 25.691 15.057 54.543 16.032 9.771-3.902 15.537-10.775 19.707-20.157 2.252-9.571.36-17.918-4.512-26.378-5.326-7.144-13.87-10.217-21.738-13.809q-5.164-2.39-10.313-4.813l-2.7-1.267c-6.79-3.235-13.233-6.894-19.688-10.746-6.05-3.563-12.252-6.64-18.612-9.612-9.752-4.556-19.2-9.528-28.605-14.761a284 284 0 0 0-9.758-5.196l-2.137-1.09a242 242 0 0 0-3.886-1.93c-4.107-2.099-4.107-2.099-5.188-4.804L1433 786l2.5-1.875L1438 782v-2l2.066-.688c3.664-1.639 6.692-3.903 9.871-6.312l4.036-3.004 2.047-1.528a566 566 0 0 1 8.855-6.406l1.704-1.216a1309 1309 0 0 1 9.726-6.858c6.962-4.871 13.874-9.73 20.437-15.136a174 174 0 0 1 4.766-3.766c10.612-8.146 19.98-17.47 22.43-31.149.176-11.112-3.392-19.33-10.913-27.434-11.065-11.362-24.168-17.025-38.581-23.077-11.26-4.73-22.045-9.92-32.672-15.928-17.47-9.865-35.643-18.142-54.085-25.998l-2.107-.901c-24.613-10.498-52.355-15.483-70.455 10.088m296 18.313a238 238 0 0 0-4.125 5l-2.043 2.508c-21.468 27.82-22.952 60.029-23.082 93.742l-.014 2.892c.007 3.288.067 6.571.139 9.858l.034 2.335c.25 14.614 2.27 28.334 5.341 42.602q.608 2.91 1.21 5.823 1.161 5.584 2.349 11.164a558 558 0 0 1 1.945 9.558l.4 2.06q.508 2.653 1.008 5.305c3.316 14.657 10.974 27.88 20.713 39.153l1.758 2.23c12.286 15.026 31.56 26.03 50.797 28.165 3.817.297 7.618.48 11.445.605l3.691.125c26.376.448 48.22-6.497 67.835-24.699 15.847-15.337 27.021-38.702 27.849-60.739-.44-11.057-5.26-20.119-13.313-27.562-6.02-4.896-11.484-6.786-19.226-6.531-8.673 1.242-15.584 6.61-20.836 13.406-4.42 7.011-6.847 14.464-9.18 22.335-2.505 8.249-6.334 15.026-13.82 19.665-5.648 2.727-10.71 3.49-16.938 3.375l-2.397-.03c-8.367-.223-14.84-1.667-21.04-7.58-5.116-5.558-7.786-10.584-9.57-17.988l-.51-2.106c-1.743-7.308-3.287-14.658-4.783-22.02q-.685-3.367-1.381-6.731c-3.877-18.919-4.63-37.352-4.184-56.615q.053-2.273.092-4.544c.32-17.21 2.618-32.935 14.871-46.046 7.89-7.354 17.614-10.368 28.309-9.992 7.346.805 12.67 4.992 17.531 10.277 1.864 2.632 3.547 5.328 5.219 8.086 7.15 12.116 7.15 12.116 18.66 19.516 7.53 1.414 15.238.854 22.121-2.602 7.954-6.327 11.554-15.144 13-25 1.008-16.132-9.357-32.032-19.52-43.637-1.39-1.589-1.39-1.589-3.48-1.363l-.648-1.7c-6.445-10.97-22.36-16.944-33.942-20.359-6.07-1.48-12.17-2.568-18.41-2.941l-2.059-.125c-26.677-.783-53.85 11.742-71.816 31.125m-488.813-19.688c-5.137 5.971-7.048 11.524-8.437 19.125l-.945 4.872-.455 2.387c-.453 2.196-.996 4.345-1.577 6.511-2.4 10.132-.763 21.03.032 31.313 1.077 14.52 1.705 29.049 2.274 43.596 1.746 44.399 3.976 88.801 9.046 132.96.68 6.042 1.228 12.093 1.75 18.15l.254 2.91c.666 7.628.666 7.628.964 11.31 1.595 25.984 1.595 25.984 14.657 47.366 7.097 5.757 12.302 6.528 21.332 6.684 8.977-1.174 16.048-5.637 23.293-10.809l2.51-1.754c2.336-1.635 4.664-3.283 6.99-4.933l5.625-3.938 2.262-1.585c5.389-3.766 10.737-7.328 16.55-10.415 4.468-2.39 8.537-5.06 12.645-8.019 3.68-2.576 7.45-4.994 11.23-7.418q4.348-2.807 8.688-5.625l1.924-1.245c10.335-6.73 18.954-13.284 22.076-25.755 1.204-8.674-.618-16.042-5.543-23.262-4.596-5.69-9.612-8.456-16.457-10.738-2.14-.2-4.289-.313-6.438-.375l-3.433-.148c-12.056.844-22.703 9.494-32.379 16.023a5047 5047 0 0 1-6.359 4.239 1156 1156 0 0 0-3.914 2.621A705 705 0 0 1 1195 857l-2.097 1.382-2.113 1.362-1.908 1.237c-1.952 1.057-3.715 1.578-5.882 2.019-1.095-4.14-1.624-8.317-2.156-12.559l-.325-2.573q-.516-4.151-1.019-8.306l-.346-2.841c-1.958-16.258-3.052-32.34-3.154-48.721l2.251.011c6.799.019 13.58-.052 20.374-.324l2.617-.068c10.945-.45 19.82-3.25 27.445-11.369 5.755-6.939 6.9-13.085 6.66-22.066-.823-7.541-4.566-14.26-10.347-19.184-7.804-4.766-14.081-6.167-23.063-6.125l-2.353-.012c-9.207.015-18.395.615-27.584 1.137a9852 9852 0 0 1-1.282-16.168q-.216-2.745-.436-5.49-.318-3.966-.626-7.932l-.199-2.444c-.41-5.338-.513-10.612-.457-15.966 4.03-1.205 6.133-.532 10.11.922l3.69 1.342q1.974.741 3.95 1.486l2.026.754c18.062 6.733 35.45 14.717 52.365 23.969 9.493 5.137 18.83 7.414 29.484 4.527 8.477-3.266 13.796-9.627 17.5-17.703 3.115-8.176 2.274-15.39-1.125-23.297-5.43-10.233-15.491-15.809-25.5-20.813l-3.588-1.819c-19.93-10.04-40.206-18.197-61.39-25.202-3.416-1.13-6.827-2.277-10.237-3.428a1996 1996 0 0 0-14.834-4.933q-2.273-.746-4.543-1.5c-15.658-5.192-31.063-8.637-44.596 3.007m-228.687 42.313A526 526 0 0 0 888 667l-2.305 2.184c-2.44 2.322-2.44 2.322-4.695 4.816v2h-2c-1.483 1.657-1.483 1.657-2.977 3.848l-1.77 2.499C862.59 699.215 854.712 715.607 848 735l-.735 2.123c-10.92 32.37-7.637 65.001 7.356 95.307 3.331 6.522 7.157 12.594 11.379 18.57l1.355 1.94c22.262 31.625 55.496 54.467 93.79 61.65 2.639.296 5.2.388 7.855.41l4.059.148c27.72.776 57.688-8.447 78.714-27 8.696-8.39 16.06-17.903 16.602-30.398-.203-8.8-3.453-15.674-9.438-22.059-6.769-5.91-14.404-7.17-23.156-7.097-8.676.932-15.191 5.322-20.969 11.613-9.843 9.737-24.632 14.63-38.25 15.105-17.255-.287-32.601-8.24-45.292-19.43-2.04-1.692-3.854-2.827-6.27-3.882v-2a341 341 0 0 0-3.453-3.414c-11.748-12.045-22.032-30.014-22.606-46.977.369-22.705 8.442-44.188 24.059-60.609q2.22-2.56 4.437-5.125c13.995-15.442 32.977-25.583 53.856-27.027 2.917.164 4.247.627 6.707 2.152 1.353 1.768 1.353 1.768 2.55 3.887l1.37 2.345 2.75 4.852c5.164 8.846 11.23 15.458 21.248 18.498 9.584 1.924 17.785-.168 25.894-5.395 6.442-6.44 9.824-13.418 10.32-22.66-1.026-18.58-13.563-36.935-27.003-49.132A229 229 0 0 0 1017 635l-2.188-1.777c-33.292-26.596-94.858 4.23-121.187 28.402M1367 1018v2h-2c-1.842 1.828-3.457 3.808-5.129 5.793a93 93 0 0 1-3.523 3.945c-13.263 14.14-10.592 36.855-10.325 54.793q.04 3.513.076 7.025.08 7.533.177 15.066a13494 13494 0 0 1 .468 42.664c.226 22.188.278 44.372.197 66.56l-.027 8.904a9043 9043 0 0 1-.174 38.71c-.043 5.994-.065 11.988-.08 17.982q-.015 3.687-.052 7.374a1115 1115 0 0 0-.046 10.105l-.049 2.932c.036 7.992 1.82 16.03 6.737 22.522 6.404 6.113 13.04 9.424 21.969 9.691 8.138-.472 15.21-3.97 20.718-9.941 6.085-7.602 7.184-15.403 7.344-24.863l.056-2.545q.087-4.014.163-8.03.103-5.275.219-10.55l.04-2.413c.11-4.975.548-9.795 1.241-14.724 5.054.493 8.295 2.95 12.312 5.812l2.124 1.483c4.906 3.45 9.678 7.059 14.439 10.705 6.244 4.778 12.723 8.912 19.48 12.924a161 161 0 0 1 14.27 9.638c7.504 5.643 15.335 10.6 23.375 15.438l2.215 1.342q3.356 2.027 6.722 4.033l2.041 1.227c10.734 6.33 21.119 10.723 33.784 7.75 7.945-2.848 12.901-7.664 17.175-14.852 3.369-7.341 3.472-15.697 1.211-23.402-5.193-11.465-15.46-17.522-25.898-23.598q-3.62-2.134-7.234-4.281l-1.79-1.06c-7.969-4.75-15.608-9.997-23.206-15.315-5.679-3.972-11.403-7.738-17.395-11.219-7.47-4.351-14.385-9.382-21.336-14.512-7.083-6.07-7.083-6.07-15.289-9.113v-5l6-3v-2l1.7-.79c7.362-3.874 13.85-9.613 20.3-14.835 6.435-5.208 13.045-10.136 19.731-15.015 6.345-4.644 12.56-9.435 18.74-14.294a408 408 0 0 1 17.112-12.692c1.507-1.078 2.968-2.22 4.417-3.374v-2l1.75-.754c7.06-3.91 11.3-11.064 13.625-18.57 2.308-9.88-.291-19.922-5.035-28.774-7.111-10.615-17.945-15.443-29.332-20.555-28.309-12.738-55.958-27.212-82.064-44.02-5.58-3.556-11.279-6.802-17.132-9.89l-2.32-1.229c-14.657-7.584-28.966-10.676-42.492.792m-227.64 7.16c-7.043 8.477-9.824 19.59-13.173 29.902l-1.603 4.885a3523 3523 0 0 0-3.16 9.681 1693 1693 0 0 1-3.56 10.813c-8.545 25.914-15.98 52.28-22.414 78.793-2.022 8.258-4.292 16.425-6.7 24.578l-.999 3.4A418 418 0 0 1 1085 1196l-.654 2.205c-1.206 3.507-2.055 4.652-5.425 6.306-4.055 1.608-8.19 2.938-12.355 4.231l-2.41.759q-3.795 1.19-7.594 2.374l-4.99 1.566a3893 3893 0 0 1-19.197 5.986l-2.204.681q-2.95.911-5.901 1.818c-8.036 2.639-14.116 5.84-18.083 13.636-2.644 8.072-2.048 16.58 1.504 24.25 4.004 6.693 9.844 9.344 17.164 11.493 12.939 2.86 26.548-1.104 39.145-4.305a349 349 0 0 1-6.845 32.471c-2.819 10.849-5.595 21.707-7.718 32.716l-.472 2.384c-1.58 8.64-1.927 17.372 2.035 25.429 5.192 6.525 12.641 10.284 20.836 11.379 7.77.33 11.88-1.496 17.726-6.629 10.705-12.077 14.408-25.44 18.373-40.777q1.151-4.445 2.323-8.884a7314 7314 0 0 0 3.189-12.157 4148 4148 0 0 1 6.42-24.248q.923-3.465 1.835-6.932c5.438-20.44 5.438-20.44 10.298-24.752a136 136 0 0 1 8.156-3.11l2.474-.878c2.62-.929 5.245-1.846 7.87-2.762q3.833-1.351 7.665-2.707 2.556-.903 5.113-1.8a564 564 0 0 0 13.066-4.757l2.608-.985q2.453-.93 4.896-1.88c3.847-1.458 6.962-2.527 11.152-2.121 4.887 14.46 8.19 29.443 11.367 44.355 3.777 17.69 8.486 35.031 13.434 52.42 1.418 4.988 2.805 9.985 4.19 14.983 1.093 3.933 2.205 7.86 3.32 11.788a509 509 0 0 1 1.794 6.587c2.54 9.103 6.184 15.388 13.989 20.86 7.212 3.812 15.644 4.4 23.504 2.32 7.745-3.189 13.208-7.838 16.675-15.481 4.692-11.83 1.215-25.144-2.273-36.832l-1.438-4.867-.787-2.668-.838-2.84-.885-3.004c-7.608-26.04-14.126-52.382-20.24-78.809l-.74-3.169c-.693-2.977-1.374-5.956-2.052-8.936l-.624-2.668c-1.075-4.802-1.61-9.118-1.396-14.039 7.435-3.549 15.019-5.97 22.916-8.268 9.699-2.949 17.287-7.205 23.084-15.732 3.936-7.983 3.987-16.047 1.227-24.406-3.124-6.607-8.273-12.106-14.915-15.219-13.744-4.406-27.111.234-40.328 4.235-2.785.828-5.058 1.39-7.984 1.39l-.507-1.903c-2.112-7.845-4.404-15.63-6.743-23.41l-.595-1.984a1140 1140 0 0 0-7.843-25.14c-2.35-7.258-4.423-14.547-6.312-21.938-2.1-8.186-4.227-16.36-6.5-24.5-.26-.98-.52-1.96-.79-2.97-3-10.568-8.245-18.404-17.71-24.155-16.632-8.213-35.459-9.284-49.64 3.16m620.952-.973-3.263.207a1237 1237 0 0 0-49.172 4.122c-11.003 1.135-22.006 2.065-33.039 2.863-19.28 1.4-38.078 3.466-57.026 7.433l-3.368.68c-11.167 2.468-20.886 6.814-27.444 16.508-3.934 6.37-5.192 12.578-4 20 2.867 8.805 8.085 14.058 16.125 18.312 10.83 4.981 22.387 2.303 33.687.25 9.387-1.691 18.649-3.138 28.188-3.562l3.245-.209 2.755.209c5.774 8.661 3.522 25.062 3.937 35.312.707 17.241.707 17.241 1.602 34.473l.132 2.298q.26 4.545.527 9.089c.54 9.268.857 18.5.868 27.785.094 30.54 3.459 59.919 8.042 90.067a577 577 0 0 1 2.433 18.177c1.314 8.006 5.44 14.435 11.459 19.799 7.738 4.921 15.365 6.077 24.406 4.61 7.124-1.957 13.01-6.61 17.012-12.805 9.29-18.177 2.25-43.761-.511-63.024-2.28-15.957-4.164-31.637-3.907-47.781-.255-22.685-1.656-45.317-3.036-67.955l-.198-3.26-.198-3.245c-.65-10.74-1.215-21.482-1.756-32.228l-.129-2.561q-.345-6.875-.683-13.751c10.814-1.63 21.52-2.489 32.437-3 26.217.073 26.217.073 48.563-11 5.659-7.162 8.349-13.222 7.937-22.375-1.087-8.923-4.868-15.657-11.914-21.223-12.336-8.55-29.56-5.146-43.71-4.215m116.223 143.75c-6.418 8.623-8.128 18.025-7.348 28.606 1.332 8.058 6.636 14.088 12.817 19.14 8.142 5.37 17.402 7.22 26.996 6.317 7.654-1.941 13.895-5.599 18.469-12.082 5.137-9.005 6.994-20.626 4.351-30.711-3.502-9.424-10.095-15.213-19.023-19.445-12.689-5.38-27.117-1.856-36.262 8.175M864 1199c-6.299 7.793-8.926 14.985-8 25 1.286 7.588 5.241 13.006 11 18 9.128 5.748 17.293 6.826 28 6 7.473-1.838 13.966-6.71 18.387-12.96 3.493-6.596 3.557-13.762 2.613-21.04-2.86-9.201-9.59-17.348-18-22-11.59-5.39-25.15-1.608-34 7"/><path d="m515 357 3 1c.252 7.018-.677 13.163-2.187 20-6.013 29.07-9.069 58.26-11.758 87.778l-.186 2.035q-.434 4.749-.855 9.499c-.508 5.64-1.074 11.26-1.779 16.879-1.15 9.23-1.715 18.4-2.051 27.692l-.186 4.662a5138 5138 0 0 0-.468 12.124c-.244 6.471-.5 12.942-.756 19.413q-.13 3.338-.255 6.677c-.253 6.628-.572 13.24-1.053 19.856-.514 7.395-.61 14.752-.599 22.162q0 2.073-.003 4.145-.002 4.326.006 8.65.006 5.382-.004 10.765c-.066 48.658 3.154 95.398 13.697 142.976l.555 2.537c4.686 24.064 4.686 24.064 19.32 42.587 7.695 4.63 15.365 5.679 24.144 4.098 9.807-2.546 16.006-8.147 21.418-16.535 1.444-2.928 2.572-5.934 3.688-9 2.932-7.684 6.146-15.172 9.625-22.625 4.45-9.565 8.636-19.218 12.702-28.953 2.37-5.659 4.807-11.268 7.396-16.83 5.97-12.841 10.688-26.12 15.455-39.442A693 693 0 0 1 628 678h3c4.209 11.81 7.34 23.767 10.313 35.938l1.447 5.87q1.093 4.424 2.18 8.847a1864 1864 0 0 0 4.341 17.314c11.339 44.351 19.93 89.78 19.969 135.718l.002 2.197c-.024 16.612-1.328 33.031-2.996 49.55q-.404 4.067-.792 8.137c-2.32 24.076-5.048 47.825-10.464 71.429l-.64 2.809A251 251 0 0 1 650 1032l-.704 2.34c-4.51 14.667-11.044 28.166-18.296 41.66l-1.213 2.313c-18.146 34.124-56.477 56.062-92.236 67.026-2.523.777-5.039 1.576-7.555 2.376-15.984 4.992-31.696 7.864-48.496 7.66l-3.887-.035c-20.159-.338-39.572-3.329-59.3-7.215l-2.556-.499c-32.431-6.396-58.7-20.633-85.081-40.396-1.527-1.12-3.1-2.18-4.676-3.23v-2l-1.812-.875C322 1100 322 1100 319 1098v-2l-1.605-.621c-3.424-1.972-5.949-4.638-8.707-7.441l-1.766-1.78a111 111 0 0 1-10.125-11.857c-2.24-2.869-4.692-5.517-7.172-8.176-5.126-5.518-9.946-11.22-14.625-17.125l-2.066-2.477c-12.498-15.604-21.367-33.925-27.927-52.704-1.935-5.418-4.051-10.768-6.132-16.131q-1.276-3.324-2.55-6.649c-1.357-3.533-2.724-7.06-4.118-10.578-3.6-9.173-6.254-18.423-8.594-27.987-.607-2.45-1.248-4.89-1.894-7.33-6.398-24.678-8.378-49.838-9.535-75.209-.167-3.567-.358-7.131-.559-10.697-1.164-21.897.04-43.455 2.25-65.238l.245-2.443a402.5 402.5 0 0 1 9.755-56.245q1.349-5.52 2.684-11.046l.653-2.7a459 459 0 0 0 5.254-24.903l.499-2.597.394-2.189c.768-2.25 1.864-3.334 3.641-4.877 3.193 4.46 5.334 8.836 7.313 13.938 2.147 5.495 4.503 10.86 7.023 16.195 3.246 6.883 6.259 13.844 9.175 20.873a2274 2274 0 0 0 2.509 6.015c2.545 6.09 5.071 12.186 7.55 18.303 8.252 20.283 17.421 40.316 28.485 59.235 1.693 2.995 3.189 5.994 4.644 9.106 4.522 9.613 10.156 16.563 20.301 20.335 7.516 2.412 17.381 2.257 24.563-1 8.326-4.943 12.091-12.865 14.437-22 1.247-9.707.981-19.373.563-29.125a2411 2411 0 0 1-.297-8.512l-.073-2.146C361.7 722.93 365.493 676.68 373 632l.633-3.825c3.396-20.196 8.181-39.994 13.367-59.8l.888-3.423C391.456 551.26 395.462 538.028 401 525l1.485-3.537a675 675 0 0 1 4.077-9.338l1.342-3.062c2.717-6.15 5.617-12.177 8.652-18.174 1.76-3.52 3.416-7.08 5.07-10.65 3.96-8.516 8.174-16.669 13.17-24.622 1.782-2.849 3.371-5.773 4.95-8.738 3.516-6.498 7.506-12.648 11.567-18.817l2.146-3.302c11.723-17.887 25.182-33.576 40.229-48.697l1.633-1.65c14.38-14.487 14.38-14.487 19.679-17.413M407.663 793.65c-2.817 3.98-4.087 8.26-5.413 12.913l-.88 2.928c-4.817 16.406-6.385 32.485-7 49.504q-.136 3.732-.28 7.462-.299 7.927-.59 15.856-.34 9.184-.688 18.369l-.267 7.274c-.257 6.931-.551 13.86-.965 20.783l-.191 3.24c-.413 3.207-1.27 5.993-2.389 9.021-3.434-1.145-3.77-1.801-5.7-4.703-3.16-4.368-6.646-7.098-11.113-10.047l-4.566-3.113-2.336-1.577c-2.17-1.482-4.308-3-6.437-4.54-10.192-7.37-20.732-14.042-31.48-20.567-2.121-1.302-4.22-2.63-6.31-3.98-10.301-6.64-18.613-8.856-31.058-7.473-5.275 2.554-9.408 6.512-11.86 11.883-3.248 10.842 1.271 20.227 5.985 29.867q.906 1.89 1.808 3.783 1.752 3.659 3.528 7.305a570 570 0 0 1 3.535 7.396c4.644 9.68 10.291 18.783 15.9 27.925C310 975 310 975 311 977h2l.684 2.52c1.59 4.206 3.797 7.51 6.378 11.168l1.49 2.137c3.517 4.992 7.242 9.758 11.17 14.433 2.669 3.212 5.232 6.495 7.778 9.804l1.315 1.7c3.06 3.988 3.06 3.988 4.185 6.238h2l.793 1.777c1.274 2.347 2.634 3.909 4.516 5.797l1.995 2.009 2.134 2.104 2.203 2.181c5.526 5.416 11.168 10.48 17.359 15.132l1.943 1.47c26.533 19.98 55.241 35.801 89.057 37.53l2.581.149c29.338 1.484 54.005-7.564 75.934-26.852a245 245 0 0 1 3.993-3.395c29.707-25.204 44.532-67.616 54.367-104.027l.579-2.11c3.04-11.783 3.909-23.908 4.609-36.015q.123-2.063.249-4.124.242-4.023.477-8.044.262-4.447.559-8.89c.506-7.788.792-15.576.902-23.38l.065-2.504c.033-5.982-.745-10.89-4.85-15.55-4.428-3.284-6.655-4.44-12.153-4.57l-3.074-.114c-7.764 1.021-12.511 6.334-17.676 11.739q-1.983 2.034-3.972 4.062l-1.891 1.93c-1.944 1.94-3.969 3.745-6.074 5.508-3.757 3.183-6.957 6.76-10.207 10.453a391 391 0 0 1-6.512 7.156c-5.562 5.993-10.762 12.22-15.906 18.578a402 402 0 0 1-3.875 4.688l-1.617 1.949C523 921 523 921 520 921c-1.402-1.738-1.402-1.738-2.937-4.312l-1.848-3.036-1.048-1.738c-1.789-2.933-3.642-5.824-5.488-8.722a770 770 0 0 1-40.866-72.63A254 254 0 0 0 457 811l-1.181-1.956a1125 1125 0 0 0-3.882-6.356l-1.21-1.995c-4.852-7.812-9.504-14.25-18.727-16.693-10.712-1.48-17.453 1.579-24.337 9.65M1672 241c2.964 1.338 5.078 2.82 7.398 5.09l1.93 1.86 2.047 1.988c5.583 5.333 11.266 10.313 17.402 14.995 5.072 3.888 9.862 8.053 14.655 12.278 4.734 4.143 9.627 8.012 14.709 11.719 1.32.98 2.595 2.02 3.859 3.07v2l1.621.66c3.226 1.817 5.766 4.253 8.441 6.777l1.726 1.613c8.107 7.618 16.136 15.349 23.212 23.95l1.535 1.766c2.763 3.417 4.415 6.375 4.055 10.964-4.262 16.4-21.21 31.37-32.59 43.27l-2.457 2.582c-3.962 4.076-3.962 4.076-5.543 5.418h-2v2c-1.258 1.27-1.258 1.27-3.125 2.813-3.362 2.846-6.593 5.79-9.788 8.82a216 216 0 0 1-19.54 16.441C1697 422.908 1697 422.908 1695 425c-2.125-.375-2.125-.375-4-1-1.475-9.054-2.631-18.108-3.586-27.23l-.43-4.04q-.566-5.355-1.127-10.708l-.705-6.675c-1.796-16.953-3.518-33.91-5.05-50.89-1.548-17.157-3.863-34.078-6.581-51.086-1.604-10.374-3.022-20.858-2.521-31.371zM812 229c5.627.317 9.388 2.74 14 5.688l2.35 1.468c2.557 1.604 5.104 3.223 7.65 4.844l5.402 3.422q5.564 3.531 11.118 7.082c4.38 2.8 8.775 5.576 13.176 8.343C896.383 279.148 896.383 279.148 898 284c-3.203 5.49-8.817 8.587-14 12l-1.883 1.244c-15.576 10.269-31.5 19.689-47.926 28.536-1.41.785-2.8 1.605-4.164 2.468-4.495 2.83-4.495 2.83-7.728 2.353L820 330c-2.123-16.023-3.865-32.057-5.308-48.156-.318-3.54-.645-7.08-.973-10.62-.986-10.78-1.881-21.556-2.43-32.369l-.142-2.69A178 178 0 0 1 811 230zM1372 670c5.608.765 10.329 3.316 15.375 5.75l3.06 1.468c8.32 4.05 16.362 8.509 24.377 13.126 7.911 4.549 15.964 8.705 24.188 12.656-.329 2.915-.543 4.548-2.664 6.646l-2.176 1.448-2.445 1.663-2.652 1.743a4727 4727 0 0 0-5.497 3.73l-2.82 1.9c-4.138 2.817-8.195 5.741-12.246 8.683l-2.24 1.62a770 770 0 0 0-15.78 11.762C1383.877 747 1383.877 747 1379 747c-2.128-8.425-3.037-16.947-4-25.562l-.75-6.572q-.25-2.181-.496-4.364c-.41-3.613-.841-7.221-1.318-10.826-.932-7.057-1.753-13.987-1.623-21.114l.001-2.212c.044-5.208.044-5.208 1.186-6.35M1402 1082c3.763.577 6.623 1.05 9.836 3.125.72.451 1.438.903 2.18 1.367l2.359 1.508c10.669 6.624 21.708 12.464 32.82 18.299l2.051 1.078q1.908 1.002 3.82 1.998A166 166 0 0 1 1465 1115c-.947 6.231-6.858 9.667-11.635 13.214a622 622 0 0 1-7.137 5.074c-4.357 3.061-8.535 6.283-12.666 9.646-3.551 2.864-7.17 5.636-10.796 8.406a479 479 0 0 0-11.864 9.383c-1.983 1.331-3.566 1.856-5.902 2.277-6.497-14.206-3.119-34.612-3.069-49.912q.014-5.271.02-10.541.016-10.274.049-20.547M1166 1118h2c14.356 35.991 14.356 35.991 13 50-4.795 3.513-10.525 5.23-16.062 7.25l-3.01 1.14-2.9 1.063-2.634.974c-2.57.615-3.932.444-6.394-.427.46-7.32 1.541-14.08 3.563-21.125l.78-2.79c8.39-29.551 8.39-29.551 11.657-36.085M1044 308c1.843.088 1.843.088 4 1 1.34 2.832 1.34 2.832 2.508 6.598l.64 2.023a616 616 0 0 1 1.977 6.442q.668 2.131 1.34 4.263c6.689 21.387 6.689 21.387 4.535 26.674-3.728 2.601-7.825 4.238-12 6a820 820 0 0 0-4.215 1.93q-2.142.975-4.285 1.945l-2.067.941C1032.99 367.33 1030.83 368 1027 368c.586-7.094 2.045-13.602 4-20.437l.912-3.233c3.538-12.275 7.77-24.311 12.088-36.33M1925 680c4.244 3.485 5.514 7.311 7.2 12.352l.85 2.466q.884 2.583 1.751 5.17c.878 2.613 1.78 5.217 2.685 7.82q.86 2.521 1.713 5.044l.808 2.324c1.848 5.581 2.615 10.964 2.993 16.824-6.243.328-11.767-.89-17.812-2.375l-2.89-.672c-7.042-1.697-7.042-1.697-9.298-3.953-.267-7.08 1.888-14.135 3.813-20.875l.81-2.903c5.448-19.293 5.448-19.293 7.377-21.222"/></svg>